#!OML:ASF F:\VICON\USERDATA\INSTALL\rory3\rory3.ASF
:FULLY-SPECIFIED
:DEGREES
1723
root -0.572629 18.3201 3.3779 -2.97962 -2.94179 0.0816419
lowerback 3.17345 0.366363 -1.60416
upperback -0.263123 0.43477 0.387985
thorax -2.06401 0.236863 1.2763
lowerneck -13.471 0.184565 -6.57029
upperneck 22.5092 0.212729 6.6438
head 9.26569 0.26934 3.43144
rclavicle 1.19426e-015 -1.23246e-014
rhumerus 37.7075 -17.6667 -21.4884
rradius 25.7697
rwrist 5.99216
rhand -30.6006 3.38731
rfingers 7.12502
rthumb -3.8975 -26.5568
lclavicle 1.19426e-015 -1.23246e-014
lhumerus 33.954 6.78272 14.7039
lradius 28.7979
lwrist 6.09452
lhand -23.1668 22.3451
lfingers 7.12502
lthumb 3.28202 52.2996
rfemur -0.440093 26.2451 10.0127
rtibia 19.1556
rfoot -18.0049 -13.6523
rtoes -6.43435
lfemur 3.70701 -15.9723 -9.01642
ltibia 16.2564
lfoot -21.1147 28.7637
ltoes -3.65251
1724
root -0.566528 18.3189 3.40334 -2.90218 -3.01766 0.148464
lowerback 3.11828 0.38599 -1.61697
upperback -0.308349 0.462116 0.436378
thorax -2.08096 0.251393 1.332
lowerneck -13.6081 0.209493 -6.66928
upperneck 22.5681 0.291067 6.59123
head 9.30631 0.293213 3.44235
rclavicle -2.03288e-015 6.36111e-015
rhumerus 37.2713 -18.8591 -19.6515
rradius 25.9931
rwrist 5.43058
rhand -31.0228 3.00139
rfingers 7.12502
rthumb -4.30518 -26.9349
lclavicle -2.03288e-015 6.36111e-015
lhumerus 32.558 7.25356 12.2953
lradius 29.0297
lwrist 6.07922
lhand -22.7051 22.3268
lfingers 7.12502
lthumb 3.72793 52.2739
rfemur -0.460509 26.3683 9.91091
rtibia 19.1538
rfoot -18.1265 -13.7213
rtoes -6.32939
lfemur 3.81548 -16.0782 -9.16279
ltibia 16.1431
lfoot -21.4191 28.8805
ltoes -3.48729
1725
root -0.567921 18.3182 3.42855 -2.87833 -3.24252 -0.258577
lowerback 3.11701 0.457667 -1.21353
upperback -0.320952 0.576392 0.597617
thorax -2.09475 0.304934 1.2655
lowerneck -13.6915 0.16984 -6.67527
upperneck 22.5647 0.268411 6.48304
head 9.32359 0.271321 3.40392
rclavicle -1.06008e-014 -3.18055e-015
rhumerus 36.6059 -20.0765 -17.855
rradius 26.2992
rwrist 4.95227
rhand -31.616 2.41603
rfingers 7.12502
rthumb -4.87791 -27.5078
lclavicle -1.06008e-014 -3.18055e-015
lhumerus 31.1904 7.84771 10.1211
lradius 29.2072
lwrist 6.19338
lhand -22.3698 22.4755
lfingers 7.12502
lthumb 4.05164 52.4167
rfemur -0.413855 26.7658 10.4427
rtibia 19.1276
rfoot -18.1929 -13.9737
rtoes -6.53485
lfemur 3.98072 -15.956 -8.72251
ltibia 16.0782
lfoot -21.5839 28.8842
ltoes -3.4104
1726
root -0.558945 18.3192 3.45174 -2.79456 -3.15999 -0.0658311
lowerback 3.14822 0.46293 -1.20574
upperback -0.403492 0.581216 0.503491
thorax -2.19612 0.307858 1.16367
lowerneck -13.7172 0.114207 -6.70476
upperneck 22.5425 0.202651 6.47141
head 9.32588 0.23733 3.39703
rclavicle 6.12195e-015 -1.19271e-014
rhumerus 35.7747 -21.3151 -16.1388
rradius 26.5739
rwrist 4.51652
rhand -31.9634 1.54142
rfingers 7.12502
rthumb -5.21344 -28.3744
lclavicle 6.12195e-015 -1.19271e-014
lhumerus 30.3542 9.43913 9.12689
lradius 28.7437
lwrist 4.88058
lhand -22.0765 22.3273
lfingers 7.12502
lthumb 4.33486 52.263
rfemur -0.402093 26.6817 10.1966
rtibia 19.0844
rfoot -18.1866 -14.0756
rtoes -7.02375
lfemur 3.96835 -16.0891 -8.99597
ltibia 16.0601
lfoot -21.7113 28.9651
ltoes -3.29493
1727
root -0.555174 18.32 3.47379 -2.69882 -3.13953 -0.105483
lowerback 3.24098 0.455156 -1.05329
upperback -0.493087 0.575722 0.500174
thorax -2.33851 0.304519 1.07396
lowerneck -13.7563 0.11415 -6.78586
upperneck 22.5169 0.216304 6.51005
head 9.3229 0.241778 3.42574
rclavicle 2.67117e-015 1.70955e-014
rhumerus 34.9202 -22.4475 -14.4587
rradius 26.8024
rwrist 4.28024
rhand -32.4903 0.663918
rfingers 7.12502
rthumb -5.72214 -29.2388
lclavicle 2.67117e-015 1.70955e-014
lhumerus 29.2755 10.8376 7.93598
lradius 28.3468
lwrist 3.79651
lhand -22.3064 21.7883
lfingers 7.12502
lthumb 4.1129 51.7283
rfemur -0.400017 26.7961 10.2537
rtibia 19.0309
rfoot -18.1587 -14.2951
rtoes -7.52761
lfemur 3.95267 -16.1281 -8.96927
ltibia 16.0463
lfoot -21.7325 29.005
ltoes -3.55172
1728
root -0.552929 18.3184 3.49438 -2.61548 -3.16969 -0.18604
lowerback 3.34538 0.451599 -0.915665
upperback -0.553545 0.576606 0.537226
thorax -2.45831 0.304288 1.03374
lowerneck -13.8666 0.129379 -6.82048
upperneck 22.4628 0.251224 6.52555
head 9.32203 0.258719 3.441
rclavicle 6.563e-015 -5.56597e-015
rhumerus 34.05 -23.4676 -12.7315
rradius 26.9833
rwrist 4.1046
rhand -32.9894 0.0107526
rfingers 7.12502
rthumb -6.20403 -29.8784
lclavicle 6.563e-015 -5.56597e-015
lhumerus 27.7568 11.6558 6.17721
lradius 28.2816
lwrist 3.58568
lhand -22.5707 21.638
lfingers 7.12502
lthumb 3.85764 51.5828
rfemur -0.385438 27.0131 10.3658
rtibia 19.0167
rfoot -18.3147 -14.4294
rtoes -7.40757
lfemur 3.99787 -16.1903 -8.90571
ltibia 15.9678
lfoot -21.8299 29.0768
ltoes -3.62097
1729
root -0.547869 18.3168 3.51969 -2.60278 -3.18139 -0.0469741
lowerback 3.44504 0.462642 -0.967093
upperback -0.601124 0.58768 0.511457
thorax -2.5638 0.311153 1.03457
lowerneck -13.7904 0.131858 -6.89991
upperneck 22.2774 0.260813 6.5838
head 9.24192 0.2635 3.4698
rclavicle -4.31735e-015 1.8487e-014
rhumerus 33.1108 -24.5538 -11.0488
rradius 27.0609
rwrist 3.7545
rhand -32.8386 -0.187925
rfingers 7.12502
rthumb -6.05837 -30.0813
lclavicle -4.31735e-015 1.8487e-014
lhumerus 26.3008 12.4853 4.56489
lradius 28.0948
lwrist 3.28695
lhand -22.5616 21.9512
lfingers 7.12502
lthumb 3.8665 51.8959
rfemur -0.288568 27.0955 10.2289
rtibia 18.9963
rfoot -18.4489 -14.4552
rtoes -7.08141
lfemur 4.12569 -16.3634 -9.15668
ltibia 15.9279
lfoot -22.0481 29.1845
ltoes -3.59385
1730
root -0.544334 18.3145 3.54208 -2.60307 -3.23132 0.0240586
lowerback 3.58001 0.472015 -0.975016
upperback -0.64804 0.598463 0.503839
thorax -2.68825 0.317485 1.02936
lowerneck -13.6345 0.1223 -7.00527
upperneck 22.087 0.251396 6.65456
head 9.14668 0.257514 3.50397
rclavicle -4.94166e-015 -1.21259e-014
rhumerus 32.1313 -25.7497 -9.48349
rradius 27.0786
rwrist 3.46718
rhand -32.4722 -0.40484
rfingers 7.12502
rthumb -5.70466 -30.308
lclavicle -4.94166e-015 -1.21259e-014
lhumerus 24.7851 13.3242 3.02226
lradius 27.8794
lwrist 2.92355
lhand -22.2539 22.0401
lfingers 7.12502
lthumb 4.16359 51.9792
rfemur -0.218116 27.1881 10.1739
rtibia 19.0003
rfoot -18.5552 -14.4849
rtoes -6.98997
lfemur 4.27209 -16.5033 -9.3194
ltibia 15.8739
lfoot -22.3111 29.2354
ltoes -3.27254
